<svg width="9" height="10" viewBox="0 0 9 10" fill="none" xmlns="http://www.w3.org/2000/svg">
<g clip-path="url(#clip0_344_1488)">
<path d="M2.57143 0C2.92701 0 3.21429 0.279297 3.21429 0.625V1.25H5.78571V0.625C5.78571 0.279297 6.07299 0 6.42857 0C6.78415 0 7.07143 0.279297 7.07143 0.625V1.25H8.03571C8.56808 1.25 9 1.66992 9 2.1875V3.125H0V2.1875C0 1.66992 0.43192 1.25 0.964286 1.25H1.92857V0.625C1.92857 0.279297 2.21585 0 2.57143 0ZM0 3.75H9V9.0625C9 9.58008 8.56808 10 8.03571 10H0.964286C0.43192 10 0 9.58008 0 9.0625V3.75ZM1.28571 5.3125V5.9375C1.28571 6.10938 1.43036 6.25 1.60714 6.25H2.25C2.42679 6.25 2.57143 6.10938 2.57143 5.9375V5.3125C2.57143 5.14062 2.42679 5 2.25 5H1.60714C1.43036 5 1.28571 5.14062 1.28571 5.3125ZM3.85714 5.3125V5.9375C3.85714 6.10938 4.00179 6.25 4.17857 6.25H4.82143C4.99821 6.25 5.14286 6.10938 5.14286 5.9375V5.3125C5.14286 5.14062 4.99821 5 4.82143 5H4.17857C4.00179 5 3.85714 5.14062 3.85714 5.3125ZM6.75 5C6.57321 5 6.42857 5.14062 6.42857 5.3125V5.9375C6.42857 6.10938 6.57321 6.25 6.75 6.25H7.39286C7.56964 6.25 7.71429 6.10938 7.71429 5.9375V5.3125C7.71429 5.14062 7.56964 5 7.39286 5H6.75ZM1.28571 7.8125V8.4375C1.28571 8.60938 1.43036 8.75 1.60714 8.75H2.25C2.42679 8.75 2.57143 8.60938 2.57143 8.4375V7.8125C2.57143 7.64062 2.42679 7.5 2.25 7.5H1.60714C1.43036 7.5 1.28571 7.64062 1.28571 7.8125ZM4.17857 7.5C4.00179 7.5 3.85714 7.64062 3.85714 7.8125V8.4375C3.85714 8.60938 4.00179 8.75 4.17857 8.75H4.82143C4.99821 8.75 5.14286 8.60938 5.14286 8.4375V7.8125C5.14286 7.64062 4.99821 7.5 4.82143 7.5H4.17857ZM6.42857 7.8125V8.4375C6.42857 8.60938 6.57321 8.75 6.75 8.75H7.39286C7.56964 8.75 7.71429 8.60938 7.71429 8.4375V7.8125C7.71429 7.64062 7.56964 7.5 7.39286 7.5H6.75C6.57321 7.5 6.42857 7.64062 6.42857 7.8125Z" fill="#F63758"/>
</g>
<defs>
<clipPath id="clip0_344_1488">
<rect width="9" height="10" fill="white"/>
</clipPath>
</defs>
</svg>
