<svg width="34" height="25" viewBox="0 0 34 25" fill="none" xmlns="http://www.w3.org/2000/svg">
<g id="Frame 24">
<rect id="Rectangle 490" x="6" width="22" height="19" rx="5" fill="#5BBE7E"/>
<rect id="Rectangle 491" x="29" width="5" height="17" rx="2.5" fill="#5BBE7E"/>
<rect id="Rectangle 492" width="5" height="17" rx="2.5" fill="#5BBE7E"/>
<rect id="Rectangle 493" x="28" y="20" width="5" height="22" rx="2.5" transform="rotate(90 28 20)" fill="#5BBE7E"/>
<rect id="Rectangle 494" x="6" width="22" height="19" rx="5" fill="#5BBE7E"/>
<rect id="Rectangle 495" x="29" width="5" height="17" rx="2.5" fill="#5BBE7E"/>
<rect id="Rectangle 496" width="5" height="17" rx="2.5" fill="#5BBE7E"/>
<rect id="Rectangle 497" x="28" y="20" width="5" height="22" rx="2.5" transform="rotate(90 28 20)" fill="#5BBE7E"/>
<path id="Vector" d="M22.748 5.88184C23.0828 6.22363 23.0828 6.77871 22.748 7.12051L15.8909 14.1205C15.5561 14.4623 15.0123 14.4623 14.6775 14.1205L11.2489 10.6205C10.9141 10.2787 10.9141 9.72363 11.2489 9.38184C11.5837 9.04004 12.1275 9.04004 12.4623 9.38184L15.2855 12.2611L21.5373 5.88184C21.8721 5.54004 22.4159 5.54004 22.7507 5.88184H22.748Z" fill="white"/>
</g>
</svg>
